<svg width="1024" height="1024" viewBox="0 0 1024 1024" fill="none" xmlns="http://www.w3.org/2000/svg">
<path fill-rule="evenodd" clip-rule="evenodd" d="M806 1012H712.146C658.39 1010.79 616.927 970.568 616.927 920.441V777.406C616.927 760.248 601.951 746.297 583.561 746.297H442.781C424.781 746.39 409.902 760.387 409.902 777.406V919.976C409.902 923.463 409.415 926.812 408.39 929.974C403.122 976.009 361.854 1012 311.854 1012H218C104.39 1012 12 924.626 12 817.257V412.053C12.4878 365.832 34.8293 323.517 73.4146 295.663L392.195 51.7694C462.39 -1.24094 560.195 -1.24094 630.244 51.6764L951.317 295.803C989.024 323.191 1011.37 365.414 1012 411.077V817.257C1012 924.626 919.61 1012 806 1012Z" fill="#FAFAFA"/>
</svg>
