<svg width="1000" height="1000" viewBox="0 0 1000 1000" fill="none" xmlns="http://www.w3.org/2000/svg">
<path fill-rule="evenodd" clip-rule="evenodd" d="M794 1000H700.146C646.39 998.791 604.927 958.568 604.927 908.441V765.406C604.927 748.248 589.951 734.297 571.561 734.297H430.781C412.781 734.39 397.902 748.387 397.902 765.406V907.976C397.902 911.463 397.415 914.812 396.39 917.974C391.122 964.009 349.854 1000 299.854 1000H206C92.3902 1000 0 912.626 0 805.257V400.053C0.487805 353.832 22.8293 311.517 61.4146 283.663L380.195 39.7694C450.39 -13.2409 548.195 -13.2409 618.244 39.6764L939.317 283.803C977.024 311.191 999.366 353.414 1000 399.077V805.257C1000 912.626 907.61 1000 794 1000Z" fill="black"/>
</svg>
