<svg width="1024" height="1024" viewBox="0 0 1024 1024" fill="none" xmlns="http://www.w3.org/2000/svg">
<path fill-rule="evenodd" clip-rule="evenodd" d="M252.761 303.471C230.245 303.471 154.987 312.061 133.39 422.283L93.9737 711.833C81.1584 793.052 91.0635 851.831 123.485 887.397C155.498 922.529 212.784 939.612 298.56 939.612H724.784C778.292 939.612 851.355 929.527 895.468 881.365C930.493 843.192 942.543 786.344 931.31 712.364L891.537 420.304C874.586 348.351 829.86 303.471 772.471 303.471H252.761ZM724.784 1012H298.56C189.144 1012 112.916 986.664 65.4839 934.594C17.8476 882.378 1.9178 804.055 18.154 701.844L57.7743 411.039C83.8134 277.701 179.035 231.083 252.761 231.083H772.472C846.504 231.083 936.518 277.556 966.897 407.902L1007.18 702.616C1021.63 797.733 1003.56 874.029 953.367 928.754C903.433 983.19 824.397 1012 724.784 1012Z" fill="#FAFAFA"/>
<path fill-rule="evenodd" clip-rule="evenodd" d="M731.796 292.864C710.658 292.864 693.503 276.649 693.503 256.67C693.503 161.649 611.71 84.3876 511.229 84.3876H510.463C462.419 84.3876 415.599 102.677 381.646 134.576C347.54 166.668 327.985 211.211 327.985 256.67C327.985 276.649 310.83 292.864 289.692 292.864C268.555 292.864 251.4 276.649 251.4 256.67C251.4 192.052 279.175 128.882 327.577 83.2776C375.826 37.963 442.353 12 510.31 12H511.382C653.985 12 770.089 121.74 770.089 256.67C770.089 276.649 752.934 292.864 731.796 292.864Z" fill="#FAFAFA"/>
<path fill-rule="evenodd" clip-rule="evenodd" d="M662.639 510.215H660.29C639.153 510.215 621.998 494 621.998 474.021C621.998 454.042 639.153 437.827 660.29 437.827C681.428 437.827 699.758 454.042 699.758 474.021C699.758 494 683.777 510.215 662.639 510.215Z" fill="#FAFAFA"/>
<path fill-rule="evenodd" clip-rule="evenodd" d="M364.92 510.215H362.622C341.485 510.215 324.33 494 324.33 474.021C324.33 454.042 341.485 437.827 362.622 437.827C383.76 437.827 402.09 454.042 402.09 474.021C402.09 494 386.058 510.215 364.92 510.215Z" fill="#FAFAFA"/>
</svg>
