<svg width="1000" height="1000" viewBox="0 0 1000 1000" fill="none" xmlns="http://www.w3.org/2000/svg">
<path fill-rule="evenodd" clip-rule="evenodd" d="M240.761 291.471C218.245 291.471 142.987 300.061 121.39 410.283L81.9737 699.833C69.1584 781.052 79.0635 839.831 111.485 875.397C143.498 910.529 200.784 927.612 286.56 927.612H712.784C766.292 927.612 839.355 917.527 883.468 869.365C918.493 831.192 930.543 774.344 919.31 700.364L879.537 408.304C862.586 336.351 817.86 291.471 760.471 291.471H240.761ZM712.784 1000H286.56C177.144 1000 100.916 974.664 53.4839 922.594C5.84761 870.378 -10.0822 792.055 6.15395 689.844L45.7743 399.039C71.8134 265.701 167.035 219.083 240.761 219.083H760.472C834.504 219.083 924.518 265.556 954.897 395.902L995.181 690.616C1009.63 785.733 991.556 862.029 941.367 916.754C891.433 971.19 812.397 1000 712.784 1000Z" fill="black"/>
<path fill-rule="evenodd" clip-rule="evenodd" d="M719.796 280.864C698.658 280.864 681.503 264.649 681.503 244.67C681.503 149.649 599.71 72.3876 499.229 72.3876H498.463C450.419 72.3876 403.599 90.6775 369.646 122.576C335.54 154.668 315.985 199.211 315.985 244.67C315.985 264.649 298.83 280.864 277.692 280.864C256.555 280.864 239.4 264.649 239.4 244.67C239.4 180.052 267.175 116.882 315.577 71.2776C363.826 25.963 430.353 0 498.31 0H499.382C641.985 0 758.089 109.74 758.089 244.67C758.089 264.649 740.934 280.864 719.796 280.864Z" fill="black"/>
<path fill-rule="evenodd" clip-rule="evenodd" d="M650.639 498.215H648.29C627.153 498.215 609.998 482 609.998 462.021C609.998 442.042 627.153 425.827 648.29 425.827C669.428 425.827 687.758 442.042 687.758 462.021C687.758 482 671.777 498.215 650.639 498.215Z" fill="black"/>
<path fill-rule="evenodd" clip-rule="evenodd" d="M352.92 498.215H350.622C329.485 498.215 312.33 482 312.33 462.021C312.33 442.042 329.485 425.827 350.622 425.827C371.76 425.827 390.09 442.042 390.09 462.021C390.09 482 374.058 498.215 352.92 498.215Z" fill="black"/>
</svg>
