<svg width="1000" height="1000" viewBox="0 0 1000 1000" fill="none" xmlns="http://www.w3.org/2000/svg">
<path fill-rule="evenodd" clip-rule="evenodd" d="M931.67 351.28C945.35 351.146 960.258 351 973.791 351C988.352 351 1000 361 1000 373.5V775.5C1000 899.5 882.935 1000 738.497 1000H274.898C123.471 1000 0 894.5 0 764.5V115.385C0 51.6594 51.6594 0 115.385 0H573.675C588.818 0 600.466 10.5 600.466 23V184C600.466 275.5 688.41 350.5 794.991 351C819.871 351 841.806 351.158 861.004 351.296C875.947 351.404 889.267 351.5 900.99 351.5C909.281 351.5 920.046 351.394 931.67 351.28ZM200 230.769C177.909 230.769 160 247.989 160 269.231C160 290.473 177.909 307.692 200 307.692H400C422.091 307.692 440 290.473 440 269.231C440 247.989 422.091 230.769 400 230.769H200ZM160 500C160 478.758 177.909 461.538 200 461.538H520C542.091 461.538 560 478.758 560 500C560 521.242 542.091 538.462 520 538.462H200C177.909 538.462 160 521.242 160 500ZM160 730.769C160 709.528 177.909 692.308 200 692.308H840C862.091 692.308 880 709.528 880 730.769C880 752.011 862.091 769.231 840 769.231H200C177.909 769.231 160 752.011 160 730.769Z" fill="black"/>
<path d="M947.711 278.3C899.837 278.45 843.401 278.3 802.807 277.95C738.392 277.95 685.335 232.4 685.335 177.1V45.3C685.335 23.75 715.795 13.05 733.209 28.6C764.078 56.1553 806.26 93.8195 848.49 131.526L852.195 134.834C894.852 172.923 937.222 210.755 967.688 237.95C984.694 253.1 972.231 278.25 947.711 278.3Z" fill="black"/>
</svg>
