<svg width="1024" height="1024" viewBox="0 0 1024 1024" fill="none" xmlns="http://www.w3.org/2000/svg">
<path fill-rule="evenodd" clip-rule="evenodd" d="M943.67 363.28C957.35 363.146 972.258 363 985.791 363C1000.35 363 1012 373 1012 385.5V787.5C1012 911.5 894.935 1012 750.497 1012H286.898C135.471 1012 12 906.5 12 776.5V127.385C12 63.6594 63.6594 12 127.385 12H585.675C600.818 12 612.466 22.5 612.466 35V196C612.466 287.5 700.41 362.5 806.991 363C831.871 363 853.806 363.158 873.004 363.296C887.947 363.404 901.267 363.5 912.99 363.5C921.281 363.5 932.046 363.394 943.67 363.28ZM212 242.769C189.909 242.769 172 259.989 172 281.231C172 302.473 189.909 319.692 212 319.692H412C434.091 319.692 452 302.473 452 281.231C452 259.989 434.091 242.769 412 242.769H212ZM172 512C172 490.758 189.909 473.538 212 473.538H532C554.091 473.538 572 490.758 572 512C572 533.242 554.091 550.462 532 550.462H212C189.909 550.462 172 533.242 172 512ZM172 742.769C172 721.528 189.909 704.308 212 704.308H852C874.091 704.308 892 721.528 892 742.769C892 764.011 874.091 781.231 852 781.231H212C189.909 781.231 172 764.011 172 742.769Z" fill="#FAFAFA"/>
<path d="M959.711 290.3C911.837 290.45 855.401 290.3 814.807 289.95C750.392 289.95 697.335 244.4 697.335 189.1V57.3C697.335 35.75 727.795 25.05 745.209 40.6C776.078 68.1553 818.26 105.819 860.49 143.526L864.195 146.834C906.852 184.923 949.222 222.755 979.688 249.95C996.694 265.1 984.231 290.25 959.711 290.3Z" fill="#FAFAFA"/>
</svg>
