<svg width="1000" height="1000" viewBox="0 0 1000 1000" fill="none" xmlns="http://www.w3.org/2000/svg">
<path fill-rule="evenodd" clip-rule="evenodd" d="M712.784 1000H286.56C177.144 1000 100.916 974.664 53.4839 922.594C5.84761 870.378 -10.0822 792.055 6.15395 689.844L45.7743 399.039C71.8134 265.701 167.035 219.083 240.761 219.083H760.472C834.504 219.083 924.518 265.556 954.897 395.902L995.181 690.616C1009.63 785.733 991.556 862.029 941.367 916.754C891.433 971.19 812.397 1000 712.784 1000ZM719.796 280.864C698.658 280.864 681.503 264.649 681.503 244.67C681.503 149.649 599.71 72.3876 499.229 72.3876H498.463C450.419 72.3876 403.599 90.6775 369.646 122.576C335.54 154.668 315.985 199.211 315.985 244.67C315.985 264.649 298.83 280.864 277.692 280.864C256.555 280.864 239.4 264.649 239.4 244.67C239.4 180.052 267.175 116.882 315.577 71.2776C363.826 25.963 430.353 0 498.31 0H499.382C641.985 0 758.089 109.74 758.089 244.67C758.089 264.649 740.934 280.864 719.796 280.864ZM650.635 498.215H648.287C627.149 498.215 609.994 482 609.994 462.021C609.994 442.042 627.149 425.828 648.287 425.828C669.424 425.828 687.754 442.042 687.754 462.021C687.754 482 671.773 498.215 650.635 498.215ZM352.916 498.215H350.619C329.481 498.215 312.326 482 312.326 462.021C312.326 442.042 329.481 425.828 350.619 425.828C371.756 425.828 390.086 442.042 390.086 462.021C390.086 482 374.054 498.215 352.916 498.215Z" fill="black"/>
</svg>
