<svg width="1024" height="1024" viewBox="0 0 1024 1024" fill="none" xmlns="http://www.w3.org/2000/svg">
<path fill-rule="evenodd" clip-rule="evenodd" d="M724.784 1012H298.56C189.144 1012 112.916 986.664 65.4839 934.594C17.8476 882.378 1.9178 804.055 18.154 701.844L57.7743 411.039C83.8134 277.701 179.035 231.083 252.761 231.083H772.472C846.504 231.083 936.518 277.556 966.897 407.902L1007.18 702.616C1021.63 797.733 1003.56 874.029 953.367 928.754C903.433 983.19 824.397 1012 724.784 1012ZM731.796 292.864C710.658 292.864 693.503 276.649 693.503 256.67C693.503 161.649 611.71 84.3876 511.229 84.3876H510.463C462.419 84.3876 415.599 102.677 381.646 134.576C347.54 166.668 327.985 211.211 327.985 256.67C327.985 276.649 310.83 292.864 289.692 292.864C268.555 292.864 251.4 276.649 251.4 256.67C251.4 192.052 279.175 128.882 327.577 83.2776C375.826 37.963 442.353 12 510.31 12H511.382C653.985 12 770.089 121.74 770.089 256.67C770.089 276.649 752.934 292.864 731.796 292.864ZM662.635 510.215H660.287C639.149 510.215 621.994 494 621.994 474.021C621.994 454.042 639.149 437.828 660.287 437.828C681.424 437.828 699.754 454.042 699.754 474.021C699.754 494 683.773 510.215 662.635 510.215ZM364.916 510.215H362.619C341.481 510.215 324.326 494 324.326 474.021C324.326 454.042 341.481 437.828 362.619 437.828C383.756 437.828 402.086 454.042 402.086 474.021C402.086 494 386.054 510.215 364.916 510.215Z" fill="#FAFAFA"/>
</svg>
