<svg width="1000" height="1000" viewBox="0 0 1000 1000" fill="none" xmlns="http://www.w3.org/2000/svg">
<path d="M160.001 269.231C160.001 247.989 177.91 230.769 200.001 230.769H400.001C422.093 230.769 440.001 247.989 440.001 269.231C440.001 290.472 422.093 307.692 400.001 307.692H200.001C177.91 307.692 160.001 290.472 160.001 269.231Z" fill="black"/>
<path d="M200.001 461.538C177.91 461.538 160.001 478.758 160.001 500C160.001 521.242 177.91 538.462 200.001 538.462H520.001C542.093 538.462 560.001 521.242 560.001 500C560.001 478.758 542.093 461.538 520.001 461.538H200.001Z" fill="black"/>
<path d="M160.001 730.769C160.001 709.528 177.91 692.308 200.001 692.308H840.001C862.093 692.308 880.001 709.528 880.001 730.769C880.001 752.011 862.093 769.231 840.001 769.231H200.001C177.91 769.231 160.001 752.011 160.001 730.769Z" fill="black"/>
<path fill-rule="evenodd" clip-rule="evenodd" d="M684.617 0H115.385C51.6595 0 0 51.6595 0 115.385V753.846C0 889.793 110.207 1000 246.154 1000H753.846C889.793 1000 1000 889.793 1000 753.846V288.462C1000 269.672 993.294 263.703 987.454 258.503L708.743 9.88419C701.802 3.69253 693.239 0.478093 684.617 0.151616V0ZM792.307 350.385H926.922L926.923 753.846C926.923 849.434 849.434 926.923 753.846 926.923H246.154C150.566 926.923 73.0769 849.434 73.0769 753.846V115.385C73.0769 92.0187 92.0188 73.0769 115.385 73.0769H599.999V158.077C599.999 264.286 686.098 350.385 792.307 350.385ZM673.076 81.1484V158.077C673.076 223.926 726.457 277.308 792.307 277.308H892.977L673.076 81.1484Z" fill="black"/>
</svg>
