<svg width="1024" height="1024" viewBox="0 0 1024 1024" fill="none" xmlns="http://www.w3.org/2000/svg">
<path d="M172.001 281.231C172.001 259.989 189.91 242.769 212.001 242.769H412.001C434.093 242.769 452.001 259.989 452.001 281.231C452.001 302.472 434.093 319.692 412.001 319.692H212.001C189.91 319.692 172.001 302.472 172.001 281.231Z" fill="#FAFAFA"/>
<path d="M212.001 473.538C189.91 473.538 172.001 490.758 172.001 512C172.001 533.242 189.91 550.462 212.001 550.462H532.001C554.093 550.462 572.001 533.242 572.001 512C572.001 490.758 554.093 473.538 532.001 473.538H212.001Z" fill="#FAFAFA"/>
<path d="M172.001 742.769C172.001 721.528 189.91 704.308 212.001 704.308H852.001C874.093 704.308 892.001 721.528 892.001 742.769C892.001 764.011 874.093 781.231 852.001 781.231H212.001C189.91 781.231 172.001 764.011 172.001 742.769Z" fill="#FAFAFA"/>
<path fill-rule="evenodd" clip-rule="evenodd" d="M696.617 12H127.385C63.6595 12 12 63.6595 12 127.385V765.846C12 901.793 122.207 1012 258.154 1012H765.846C901.793 1012 1012 901.793 1012 765.846V300.462C1012 281.672 1005.29 275.703 999.454 270.503L720.743 21.8842C713.802 15.6925 705.239 12.4781 696.617 12.1516V12ZM804.307 362.385H938.922L938.923 765.846C938.923 861.434 861.434 938.923 765.846 938.923H258.154C162.566 938.923 85.0769 861.434 85.0769 765.846V127.385C85.0769 104.019 104.019 85.0769 127.385 85.0769H611.999V170.077C611.999 276.286 698.098 362.385 804.307 362.385ZM685.076 93.1484V170.077C685.076 235.926 738.457 289.308 804.307 289.308H904.977L685.076 93.1484Z" fill="#FAFAFA"/>
</svg>
