<svg width="1024" height="1024" viewBox="0 0 1024 1024" fill="none" xmlns="http://www.w3.org/2000/svg">
<path fill-rule="evenodd" clip-rule="evenodd" d="M442.781 746.297H583.561C601.951 746.297 616.927 760.248 616.927 777.406V920.441C616.927 970.568 658.39 1010.79 712.146 1012H806C919.61 1012 1012 924.626 1012 817.257V411.077C1011.37 365.414 989.024 323.191 951.317 295.803L630.244 51.6764C560.195 -1.24094 462.39 -1.24094 392.195 51.7694L73.4146 295.663C34.8293 323.517 12.4878 365.832 12 412.053V817.257C12 924.626 104.39 1012 218 1012H311.854C361.854 1012 403.122 976.009 408.39 929.974C409.415 926.812 409.902 923.463 409.902 919.976V777.406C409.902 760.387 424.78 746.39 442.781 746.297ZM85.0769 412.506V817.257C85.0769 880.46 140.834 938.923 218 938.923H311.854C327.379 938.923 335.039 928.203 335.787 921.665L336.618 914.404L336.826 913.764V777.406C336.826 715.965 388.535 673.5 442.403 673.221L442.781 673.22L583.561 673.221C637.386 673.221 690.004 715.133 690.004 777.406V920.441C690.004 924.673 691.573 928.557 695.099 931.957C698.636 935.367 704.62 938.591 713.185 938.923H806C883.166 938.923 938.923 880.46 938.923 817.257V411.674C938.491 389.943 927.925 369.131 908.371 354.929L907.724 354.458L586.195 109.985C586.168 109.965 586.141 109.945 586.114 109.925C542.221 76.8227 480.524 76.7531 436.396 109.963L117.011 354.32L116.187 354.915C95.8368 369.605 85.4074 390.419 85.0769 412.506Z" fill="#FAFAFA"/>
</svg>
