<svg width="1000" height="1000" viewBox="0 0 1000 1000" fill="none" xmlns="http://www.w3.org/2000/svg">
<path fill-rule="evenodd" clip-rule="evenodd" d="M430.781 734.297H571.561C589.951 734.297 604.927 748.248 604.927 765.406V908.441C604.927 958.568 646.39 998.791 700.146 1000H794C907.61 1000 1000 912.626 1000 805.257V399.077C999.366 353.414 977.024 311.191 939.317 283.803L618.244 39.6764C548.195 -13.2409 450.39 -13.2409 380.195 39.7694L61.4146 283.663C22.8293 311.517 0.487805 353.832 0 400.053V805.257C0 912.626 92.3902 1000 206 1000H299.854C349.854 1000 391.122 964.009 396.39 917.974C397.415 914.812 397.902 911.463 397.902 907.976V765.406C397.902 748.387 412.78 734.39 430.781 734.297ZM73.0769 400.506V805.257C73.0769 868.46 128.834 926.923 206 926.923H299.854C315.379 926.923 323.039 916.203 323.787 909.665L324.618 902.404L324.826 901.764V765.406C324.826 703.965 376.535 661.5 430.403 661.221L430.781 661.22L571.561 661.221C625.386 661.221 678.004 703.133 678.004 765.406V908.441C678.004 912.673 679.573 916.557 683.099 919.957C686.636 923.367 692.62 926.591 701.185 926.923H794C871.166 926.923 926.923 868.46 926.923 805.257V399.674C926.491 377.943 915.925 357.131 896.371 342.929L895.724 342.458L574.195 97.9854C574.168 97.9651 574.141 97.9448 574.114 97.9245C530.221 64.8227 468.524 64.7531 424.396 97.9635L105.011 342.32L104.187 342.915C83.8368 357.605 73.4074 378.419 73.0769 400.506Z" fill="black"/>
</svg>
