<svg width="1000" height="1000" viewBox="0 0 1000 1000" fill="none" xmlns="http://www.w3.org/2000/svg">
<path fill-rule="evenodd" clip-rule="evenodd" d="M315.205 267.322H315.204C314.844 376.345 399.553 460.96 498.618 461.336H500.043C599.44 461.336 684.785 376.706 684.785 267.232C684.785 157.739 599.423 73.0769 500.043 73.0769C400.563 73.0769 315.205 157.794 315.205 267.081V267.322ZM498.489 534.413H500.043C642.235 534.413 757.862 414.587 757.862 267.232C757.862 119.877 642.235 0 500.043 0C357.804 0 242.128 119.877 242.128 267.081C241.642 414.033 356.59 533.96 498.489 534.413ZM218.829 905.259C319.775 926.688 437.341 926.923 500.063 926.923C607.054 926.923 723.79 921.922 812.108 898.954C856.357 887.446 886.939 873.009 905.238 857.737C921.005 844.579 926.923 831.924 926.923 814.951C926.923 797.952 920.195 783.305 897.241 767.164C871.808 749.28 832.067 734.43 781.23 723.635C680.318 702.207 562.786 701.972 500.063 701.972C393.041 701.972 276.271 706.973 187.928 729.942C143.665 741.451 113.073 755.889 94.7667 771.163C78.9934 784.324 73.0769 796.978 73.0769 813.944C73.0769 830.933 79.8019 845.579 102.769 861.725C128.215 879.613 167.974 894.464 218.829 905.259ZM0 813.944C0 1000 376.389 1000 500.063 1000C714.646 1000 1000 980.826 1000 814.951C1000 628.895 623.737 628.895 500.063 628.895C285.417 628.895 0 648.069 0 813.944Z" fill="black"/>
</svg>
