<svg width="1024" height="1024" viewBox="0 0 1024 1024" fill="none" xmlns="http://www.w3.org/2000/svg">
<path fill-rule="evenodd" clip-rule="evenodd" d="M327.205 279.322H327.204C326.844 388.345 411.553 472.96 510.618 473.336H512.043C611.44 473.336 696.785 388.706 696.785 279.232C696.785 169.739 611.423 85.0769 512.043 85.0769C412.563 85.0769 327.205 169.794 327.205 279.081V279.322ZM510.489 546.413H512.043C654.235 546.413 769.862 426.587 769.862 279.232C769.862 131.877 654.235 12 512.043 12C369.804 12 254.128 131.877 254.128 279.081C253.642 426.033 368.59 545.96 510.489 546.413ZM230.829 917.259C331.775 938.688 449.341 938.923 512.063 938.923C619.054 938.923 735.79 933.922 824.108 910.954C868.357 899.446 898.939 885.009 917.238 869.737C933.005 856.579 938.923 843.924 938.923 826.951C938.923 809.952 932.195 795.305 909.241 779.164C883.808 761.28 844.067 746.43 793.23 735.635C692.318 714.207 574.786 713.972 512.063 713.972C405.041 713.972 288.271 718.973 199.928 741.942C155.665 753.451 125.073 767.889 106.767 783.163C90.9934 796.324 85.0769 808.978 85.0769 825.944C85.0769 842.933 91.8019 857.579 114.769 873.725C140.215 891.613 179.974 906.464 230.829 917.259ZM12 825.944C12 1012 388.389 1012 512.063 1012C726.646 1012 1012 992.826 1012 826.951C1012 640.895 635.737 640.895 512.063 640.895C297.417 640.895 12 660.069 12 825.944Z" fill="#FAFAFA"/>
</svg>
